<svg xmlns="http://www.w3.org/2000/svg" viewBox="0 0 630 360">
  <rect width="630" height="120" fill="#239F40"/>
  <rect y="120" width="630" height="120" fill="#ffffff"/>
  <rect y="240" width="630" height="120" fill="#DA0000"/>
  <g transform="translate(315,180)">
    <g fill="#C8A951" stroke="#8B6914" stroke-width="0.5">
      <circle r="32" fill="#F5C83A"/>
      <g id="rays">
        <path d="M0,-32 L-3,-52 L0,-45 L3,-52 Z"/>
        <path d="M0,-32 L-3,-52 L0,-45 L3,-52 Z" transform="rotate(30)"/>
        <path d="M0,-32 L-3,-52 L0,-45 L3,-52 Z" transform="rotate(60)"/>
        <path d="M0,-32 L-3,-52 L0,-45 L3,-52 Z" transform="rotate(90)"/>
        <path d="M0,-32 L-3,-52 L0,-45 L3,-52 Z" transform="rotate(120)"/>
        <path d="M0,-32 L-3,-52 L0,-45 L3,-52 Z" transform="rotate(150)"/>
        <path d="M0,-32 L-3,-52 L0,-45 L3,-52 Z" transform="rotate(180)"/>
        <path d="M0,-32 L-3,-52 L0,-45 L3,-52 Z" transform="rotate(210)"/>
        <path d="M0,-32 L-3,-52 L0,-45 L3,-52 Z" transform="rotate(240)"/>
        <path d="M0,-32 L-3,-52 L0,-45 L3,-52 Z" transform="rotate(270)"/>
        <path d="M0,-32 L-3,-52 L0,-45 L3,-52 Z" transform="rotate(300)"/>
        <path d="M0,-32 L-3,-52 L0,-45 L3,-52 Z" transform="rotate(330)"/>
      </g>
      <g fill="#C8A951" stroke="#8B6914" stroke-width="0.8">
        <path d="M-48,12 Q-52,0 -46,-6 Q-40,-12 -32,-10 Q-24,-14 -16,-10 Q-8,-16 0,-12 Q8,-14 14,-8 Q20,-14 28,-10 Q34,-6 32,4 Q38,6 40,14 Q42,22 36,26 Q34,32 28,34 L24,36 L22,30 L18,32 L16,28 L10,30 L8,24 L2,26 L0,20 L-6,22 L-8,16 L-14,18 L-16,12 L-22,14 L-26,8 L-34,10 L-38,4 L-44,6 Z"/>
        <path d="M28,-10 L34,-18 L38,-14 Z" fill="#8B6914"/>
        <path d="M32,4 L44,-4 L48,2 L42,6 Z" stroke-width="1.5"/>
        <path d="M42,6 L56,-2 L52,8 Z" fill="#D9D9D9" stroke="#333" stroke-width="0.5"/>
      </g>
    </g>
  </g>
</svg>
